<svg xmlns="http://www.w3.org/2000/svg" viewBox="0 0 64 64">
  <defs>
    <linearGradient id="cellPink" x1="10" y1="8" x2="56" y2="58" gradientUnits="userSpaceOnUse">
      <stop offset="0" stop-color="#ff8abb"/>
      <stop offset=".58" stop-color="#ff5f99"/>
      <stop offset="1" stop-color="#ff3f82"/>
    </linearGradient>
    <filter id="softShadow" x="-20%" y="-20%" width="140%" height="140%">
      <feDropShadow dx="0" dy="4" stdDeviation="3" flood-color="#d83f78" flood-opacity=".28"/>
    </filter>
  </defs>
  <circle cx="32" cy="32" r="29" fill="#fff1f7"/>
  <path
    fill="url(#cellPink)"
    filter="url(#softShadow)"
    d="M32 53.5 27.7 49.7C14.2 37.8 8.5 32.6 8.5 24.1c0-6.9 5.4-12.3 12.3-12.3 3.9 0 7.7 1.8 10.2 4.7 2.5-2.9 6.3-4.7 10.2-4.7 6.9 0 12.3 5.4 12.3 12.3 0 8.5-5.7 13.7-19.2 25.6L32 53.5Z"
  />
  <circle cx="23.5" cy="27" r="3.1" fill="#fff"/>
  <circle cx="40.5" cy="27" r="3.1" fill="#fff"/>
  <circle cx="24.3" cy="27.4" r="1.25" fill="#2d2d2d"/>
  <circle cx="39.7" cy="27.4" r="1.25" fill="#2d2d2d"/>
  <path d="M27.4 36.8c2.8 2.6 6.4 2.6 9.2 0" fill="none" stroke="#fff" stroke-width="3.2" stroke-linecap="round"/>
</svg>
